<svg width="25" height="25" viewBox="0 0 25 25" fill="none" xmlns="http://www.w3.org/2000/svg">
<path d="M0.184096 12.6509C0.0824335 5.86737 5.49918 0.285795 12.2827 0.184132C19.0663 0.0824691 24.6479 5.49921 24.7495 12.2828C24.8512 19.0663 19.4344 24.6479 12.6509 24.7496C5.86733 24.8512 0.285759 19.4345 0.184096 12.6509Z" fill="white"/>
<path d="M2.23971 12.4623C2.28002 18.0665 6.85586 22.5771 12.4602 22.5367C18.0644 22.4964 22.5749 17.9206 22.5346 12.3163C22.4943 6.71202 17.9185 2.20152 12.3142 2.24182C6.70992 2.28212 2.19941 6.85797 2.23971 12.4623Z" fill="white"/>
<path d="M12.3198 3.01641C7.25425 3.05284 3.17691 7.18854 3.21311 12.254C3.24954 17.3197 7.38602 21.3971 12.4517 21.3607C17.5171 21.324 21.5938 17.1876 21.5574 12.1221C21.5207 7.05678 17.3851 2.98024 12.3198 3.01641Z" fill="white" stroke="#136EE5" stroke-width="1.06818"/>
<rect x="2.78491" y="9.60065" width="1.37126" height="2.64723" transform="rotate(4.64403 2.78491 9.60065)" fill="white"/>
<path d="M2.68191 12.6365L16.8001 12.5349M16.8001 12.5349L13.2488 9.535M16.8001 12.5349L13.2996 16.5941" stroke="#136EE5" stroke-width="1.70909"/>
</svg>
